<svg version="1.1" xmlns="http://www.w3.org/2000/svg" xmlns:xlink="http://www.w3.org/1999/xlink" width="2000" height="2000"><defs/><g transform="scale(2,2)"><g id="background-829d7c3f"><rect fill="white" stroke="none" x="0" y="0" width="1000" height="1000" class="dcg-svg-background"/></g><g id="graphpaper-829d7c3f"><g id="axis-829d7c3f"><g><g><path fill="none" stroke="rgb(0,0,0)" class="dcg-svg-tickmark" paint-order="fill stroke markers" d="" stroke-opacity="0.9" stroke-miterlimit="2" stroke-width="1.5" stroke-dasharray=""/></g></g></g></g><g id="expressions-829d7c3f"><g id="sketch-829d7c3f"><title>Expression 3</title><path fill="#000000" stroke="none" paint-order="stroke fill markers" d="" fill-opacity="0.4"/><path fill="#000000" stroke="none" class="dcg-svg-region" paint-order="stroke fill markers" d=" M -3 1003 L -3 -3 L 500 -3 L 500 444.244384765625 L 502.75412642949243 444.51149857050757 L 506.98977921097384 445.2673505429869 L 511.42275772854 446.82919539646 L 515.380859375 449.01651202017797 L 518.7661218474265 451.66015625 L 521.97265625 455.13771104861183 L 524.169921875 458.4282527506897 L 526.3671875 463.3397276217466 L 527.3323550897069 467.041015625 L 527.7970778536051 471.2682727559065 L 527.67558920066 474.94121420066006 L 527.1926096109427 478.02734375 L 525.8607691077752 482.421875 L 524.3488886437384 485.6282900531308 L 521.97265625 489.2387979441984 L 518.6767578125 492.79687007126273 L 515.004239027502 495.60546875 L 510.9424237472801 497.7588299972801 L 506.591796875 499.21979165978206 L 502.197265625 500 L 496.7041015625 500.273601794748 L 490.6598999665489 501.6462280915489 L 483.5205078125 505.4712386533077 L 482.0492267648642 506.591796875 L 477.87360740820424 510.986328125 L 475.7070118643658 514.2822265625 L 473.6328125 518.968251146783 L 472.6142140470211 522.991254702979 L 472.2266106087465 526.3671875 L 472.34776710559515 530.76171875 L 473.0199303168506 534.5433678168506 L 474.3071283222923 538.4521484375 L 476.0814537540079 541.999422504008 L 479.09593665766795 546.142578125 L 483.0884072700384 549.8705771049616 L 487.10499679813364 552.4457844518664 L 490.1997640341255 553.8330078125 L 495.60546875 555.2746141712096 L 499.53437726331725 555.6209804033699 L 500 557.12890625 L 500 557.12890625 L 500 1003 L -3 1003 M 495.60546875 465.09503555299705 L 493.53149934151 466.91771940849 L 491.9537537745256 469.9810975245256 L 491.71023659791877 473.13351340208123 L 491.94706494681446 474.36893994681446 L 492.81279781856784 476.42548343143216 L 494.04100330519816 478.02734375 L 495.60546875 479.28003575805974 L 497.8190226693403 480.2408976693403 L 500 480.53125316938707 L 502.23990780493 480.224609375 L 505.13275949554134 478.76557199554134 L 506.591796875 477.3020477529321 L 507.50643104119166 475.830078125 L 508.28976340208123 473.13351340208123 L 508.34292358752646 472.3001516644132 L 507.805156528872 469.23828125 L 506.1097483763647 466.5056508110508 L 503.96088973311214 464.84375 L 500.9461785705115 463.8975714294885 L 499.0538214294885 463.8975714294885 L 496.03911026688786 464.84375 L 495.60546875 465.09503555299705 L 495.60546875 465.09503555299705 M 505.13275949554134 521.2344280044587 L 506.591796875 522.6979522470679 L 507.50643104119166 524.169921875 L 508.28976340208123 526.8664865979188 L 508.34292358752646 527.6998483355868 L 507.805156528872 530.76171875 L 506.1097483763647 533.4943491889492 L 503.96088973311214 535.15625 L 502.197265625 535.860717788421 L 500 536.1553608085427 L 497.2640049273962 535.6949794476038 L 495.60546875 534.904964447003 L 493.408203125 532.927190391637 L 492.194843471128 530.76171875 L 491.9537537745256 530.0189024754744 L 491.71023659791877 526.8664865979188 L 491.94706494681446 525.6310600531856 L 492.81279781856784 523.5745165685679 L 494.04100330519816 521.97265625 L 495.60546875 520.7199642419403 L 497.8190226693403 519.7591023306596 L 500 519.4687468306129 L 502.23990780493 519.775390625 L 505.13275949554134 521.2344280044587 L 505.13275949554134 521.2344280044587"/></g></g><g id="labels-829d7c3f"/><g id="labels-829d7c3f"/></g></svg>