<?xml version="1.0" encoding="UTF-8"?>
<!DOCTYPE svg PUBLIC "-//W3C//DTD SVG 1.1//EN" "http://www.w3.org/Graphics/SVG/1.1/DTD/svg11.dtd">
<svg xmlns="http://www.w3.org/2000/svg" version="1.1" width="4000px" height="4000px" style="shape-rendering:geometricPrecision; text-rendering:geometricPrecision; image-rendering:optimizeQuality; fill-rule:evenodd; clip-rule:evenodd" xmlns:xlink="http://www.w3.org/1999/xlink">
<g><path style="opacity:1" fill="#000000" d="M -0.5,-0.5 C 666.167,-0.5 1332.83,-0.5 1999.5,-0.5C 1999.5,630.167 1999.5,1260.83 1999.5,1891.5C 2033.56,1894.22 2051.89,1912.56 2054.5,1946.5C 2053.52,1974.66 2039.52,1992.82 2012.5,2001C 1989.47,1999.67 1970.3,2007.5 1955,2024.5C 1943.32,2042.37 1941.32,2061.37 1949,2081.5C 1959.53,2101.69 1976.2,2112.69 1999,2114.5C 1999.5,2742.83 1999.67,3371.17 1999.5,3999.5C 1332.83,3999.5 666.167,3999.5 -0.5,3999.5C -0.5,2666.17 -0.5,1332.83 -0.5,-0.5 Z"/></g>
<g><path style="opacity:1" fill="#fefefe" d="M 1999.5,-0.5 C 2666.17,-0.5 3332.83,-0.5 3999.5,-0.5C 3999.5,1332.83 3999.5,2666.17 3999.5,3999.5C 3332.83,3999.5 2666.17,3999.5 1999.5,3999.5C 1999.67,3371.17 1999.5,2742.83 1999,2114.5C 1976.2,2112.69 1959.53,2101.69 1949,2081.5C 1941.32,2061.37 1943.32,2042.37 1955,2024.5C 1970.3,2007.5 1989.47,1999.67 2012.5,2001C 2039.52,1992.82 2053.52,1974.66 2054.5,1946.5C 2051.89,1912.56 2033.56,1894.22 1999.5,1891.5C 1999.5,1260.83 1999.5,630.167 1999.5,-0.5 Z"/></g>
<g><path style="opacity:1" fill="#fafafa" d="M 1994.5,1930.5 C 2012.09,1930.37 2018.59,1938.71 2014,1955.5C 2004.33,1966.17 1994.67,1966.17 1985,1955.5C 1980.99,1944.22 1984.16,1935.89 1994.5,1930.5 Z"/></g>
<g><path style="opacity:1" fill="#050505" d="M 1994.5,2041.5 C 2006.48,2040.49 2013.81,2045.82 2016.5,2057.5C 2014.26,2070.57 2006.6,2076.07 1993.5,2074C 1983.56,2068.41 1980.72,2060.24 1985,2049.5C 1987.77,2046.22 1990.94,2043.55 1994.5,2041.5 Z"/></g>
</svg>